# Alias OBJ Model File
# Exported from SketchUp, (c) 2000-2012 Trimble Navigation Limited
# File units = meters

mtllib block1.mtl

g Mesh1 surface1 Model

usemtl FrontColor
v 1 0 -1
vt -39.3701 39.3701
vn 0 -1 -0
v 1 0 -0
vt -39.3701 0
v 0 0 -0
vt 0 0
v 0 0 -1
vt 0 39.3701
f 1/1/1 2/2/1 3/3/1 4/4/1 

g Mesh2 surface2 Model

v 1 -1.80478e-16 1.99618e-17
vn 0 -1.38778e-17 1
v 1 1 3.38396e-17
v 0 1 3.38396e-17
v 0 -1.80478e-16 1.99618e-17
f 5/1/2 6/2/2 7/3/2 8/4/2 

g Mesh3 surface3 Model

v -4.15645e-16 -1.80478e-16 -1
vn -1 -6.93889e-17 -0
v -4.15645e-16 -1.80478e-16 -0
v -4.85034e-16 1 -0
v -4.85034e-16 1 -1
f 9/1/3 10/2/3 11/3/3 12/4/3 

g Mesh4 surface4 Model

v 1 1 -1
vn 0 -3.33067e-16 -1
v 0 1 -1
f 13/1/4 1/2/4 4/3/4 14/4/4 

g Mesh5 surface5 Model

vn 1 -9.36751e-17 -0
v 1 1 -0
f 13/1/5 15/2/5 2/3/5 1/4/5 

g Mesh6 surface6 Model

v 1 1 9.02389e-16
vn 1.8735e-16 1 3.05311e-16
v 1 1 -1
v -1.53933e-16 1 -1
v -1.53933e-16 1 9.02389e-16
f 16/1/6 17/2/6 18/3/6 19/4/6 

