# Alias OBJ Model File
# Exported from SketchUp, (c) 2000-2012 Trimble Navigation Limited
# File units = meters

mtllib TwistedBlock.mtl

g Mesh1 Model

usemtl FrontColor
v -0.5 0 0.5
vt 19.685 -19.685
vn 0 -1 -0
v -0.5 0 -0.5
vt 19.685 19.685
v 0.5 0 -0.5
vt -19.685 19.685
v 0.5 0 0.5
vt -19.685 -19.685
f 1/1/1 2/2/1 3/3/1 4/4/1 

vt -19.685 -7.4883
vn -0.92482 0.380406 -8.4024e-18
vt 19.685 -7.4883
vn -0.998795 -4.80769e-16 -0.0490677
v -0.448584 0.125 -0.546601
vt -21.5197 -2.16698
vn -0.988589 0.135982 -0.0648072
f 2/5/2 1/6/3 5/7/4

v -0.546601 0.125 0.448584
vt 19.685 12.0396
vn -0.982237 -0.135982 -0.129302
vt -19.685 12.0396
vt 21.5197 6.71826
f 6/8/5 5/9/4 1/10/3

vt -19.685 -2.93702
vt 19.685 -2.93702
v -0.392847 0.25 -0.587938
vt -21.5197 2.38429
vn -0.977477 0.135982 -0.161394
f 5/11/4 6/12/5 7/13/6

v -0.587938 0.25 0.392847
vt 19.685 16.5909
vn -0.964834 -0.135982 -0.224956
vt -19.685 16.5909
vt 21.5197 11.2695
f 8/14/7 7/15/6 6/16/5

vt -19.685 1.61425
vt 19.685 1.61425
v -0.333328 0.375 -0.623613
vt -21.5197 6.93557
vn -0.956951 0.135982 -0.256426
f 7/17/6 8/18/7 9/19/8

v -0.623613 0.375 0.333328
vt 19.685 21.1421
vn -0.938138 -0.135982 -0.318443
vt -19.685 21.1421
vt 21.5197 15.8208
f 10/20/9 9/21/8 8/22/7

vt -19.685 6.16553
vt 19.685 6.16553
v -0.270598 0.5 -0.653281
vt -21.5197 11.4868
vn -0.927209 0.135982 -0.348989
f 9/23/8 10/24/9 11/25/10

v -0.653281 0.5 0.270598
vt 19.685 25.6934
vn -0.902408 -0.135982 -0.408863
vt -19.685 25.6934
vt 21.5197 20.3721
f 12/26/11 11/27/10 10/28/9

vt -19.685 10.7168
vt 19.685 10.7168
v -0.205262 0.625 -0.676659
vt -21.5197 16.0381
vn -0.888537 0.135982 -0.438191
f 11/29/10 12/30/11 13/31/12

v -0.676659 0.625 0.205262
vt 19.685 30.2447
vn -0.857987 -0.135982 -0.495346
vt -19.685 30.2447
vt 21.5197 24.9234
f 14/32/13 13/33/12 12/34/11

vt -19.685 15.2681
vt 19.685 15.2681
v -0.13795 0.75 -0.69352
vt -21.5197 20.5894
vn -0.841308 0.135982 -0.523173
f 13/35/12 14/36/13 15/37/14

v -0.69352 0.75 0.13795
vt 19.685 34.796
vn -0.805303 -0.135982 -0.577058
vt -19.685 34.796
vt 21.5197 29.4747
f 16/38/15 15/39/14 14/40/13

vt -19.685 19.8194
vt 19.685 19.8194
v -0.0693086 0.875 -0.703702
vt -21.5197 25.1407
vn -0.785977 0.135982 -0.603116
f 15/41/14 16/42/15 17/43/16

v -0.703702 0.875 0.0693086
vt 19.685 39.3472
vn -0.744864 -0.135982 -0.653213
vt -19.685 39.3472
vt 21.5197 34.0259
f 18/44/17 17/45/16 16/46/15

vt -19.685 24.3706
vt 19.685 24.3706
v -2.25597e-16 1 -0.707107
vt -21.5197 29.692
vn -0.706879 3.13818e-16 -0.707334
f 17/47/16 18/48/17 19/49/18

v -0.707107 1 -3.38396e-16
vt 19.685 43.8985
vn -0.658345 -0.364915 -0.658345
vt -19.685 43.8985
vt 21.5197 38.5772
f 20/50/19 19/51/18 18/52/17

vt 19.685 43.7663
v -0.703702 1.125 -0.0693086
vt 17.6608 49.0184
vn -0.654294 -0.123451 -0.746096
vt -19.685 43.7663
f 20/53/19 21/54/20 19/55/18

vt -19.685 28.9219
vn -0.658345 0.364915 0.658345
v -4.73754e-16 1 0.707107
vt 19.685 28.9219
vn -0.706879 7.47186e-16 0.707334
vt -21.5197 34.2432
vn -0.744864 0.135982 0.653213
f 20/56/21 22/57/22 21/58/23

vt -19.685 30.0135
vt -17.6608 24.7613
vn -0.654294 0.123451 0.746096
vt 19.685 30.0135
f 20/59/21 18/60/24 22/61/22

v 0.0693086 0.875 0.703702
vt 19.685 39.1551
vn -0.604114 -0.123451 0.787278
vt 17.6608 44.4072
vt -19.685 39.1551
f 23/62/25 22/63/22 18/64/24

vn 0.785977 0.135982 0.603116
v 0.703702 0.875 -0.0693086
vn 0.744864 -0.135982 0.653213
vn 0.706879 1.79325e-16 0.707334
f 23/47/26 24/48/27 22/49/28

v 0.69352 0.75 -0.13795
vn 0.805303 -0.135982 0.577058
f 24/44/27 23/45/26 25/46/29

v 0.13795 0.75 0.69352
vn 0.841308 0.135982 0.523173
f 26/41/30 25/42/29 23/43/26

v 0.676659 0.625 -0.205262
vn 0.857987 -0.135982 0.495346
f 25/38/29 26/39/30 27/40/31

v 0.205262 0.625 0.676659
vn 0.888537 0.135982 0.438191
f 28/35/32 27/36/31 26/37/30

v 0.653281 0.5 -0.270598
vn 0.902408 -0.135982 0.408863
f 27/32/31 28/33/32 29/34/33

v 0.270598 0.5 0.653281
vn 0.927209 0.135982 0.348989
f 30/29/34 29/30/33 28/31/32

v 0.623613 0.375 -0.333328
vn 0.938138 -0.135982 0.318443
f 29/26/33 30/27/34 31/28/35

v 0.333328 0.375 0.623613
vn 0.956951 0.135982 0.256426
f 32/23/36 31/24/35 30/25/34

v 0.587938 0.25 -0.392847
vn 0.964834 -0.135982 0.224956
f 31/20/35 32/21/36 33/22/37

v 0.392847 0.25 0.587938
vn 0.977477 0.135982 0.161394
f 34/17/38 33/18/37 32/19/36

v 0.546601 0.125 -0.448584
vn 0.982237 -0.135982 0.129302
f 33/14/37 34/15/38 35/16/39

v 0.448584 0.125 0.546601
vn 0.988589 0.135982 0.0648072
f 36/11/40 35/12/39 34/13/38

vn 0.998795 1.5024e-15 0.0490677
f 35/8/39 36/9/40 3/10/41

vn 0.92482 0.380406 1.26036e-17
f 4/5/42 3/6/41 36/7/40

vt 19.685 6.87641
vn 4.25654e-18 -0.349322 0.937003
vt 17.6608 12.1285
vn -0.0649144 -0.123451 0.990225
vt -19.685 6.87641
vn -0.0490677 1.48287e-16 0.998795
f 4/65/43 36/66/44 1/67/45

vt -19.685 -2.26518
vn -0.129516 0.123451 0.983863
vt -17.6608 -7.51731
vt 19.685 -2.26518
f 6/68/46 1/69/45 36/70/44

vt 19.685 11.4876
vt 17.6608 16.7398
vn -0.161661 -0.123451 0.979094
vt -19.685 11.4876
f 36/71/44 34/72/47 6/73/46

vt -19.685 2.34606
vn -0.225328 0.123451 0.96643
vt -17.6608 -2.90607
vt 19.685 2.34606
f 8/74/48 6/75/46 34/76/47

vt 19.685 16.0989
vt 17.6608 21.351
vn -0.25685 -0.123451 0.958534
vt -19.685 16.0989
f 34/77/47 32/78/49 8/79/48

vt -19.685 6.95729
vn -0.31897 0.123451 0.939691
vt -17.6608 1.70516
vt 19.685 6.95729
f 10/80/50 8/81/48 32/82/49

vt 19.685 20.7101
vt 17.6608 25.9622
vn -0.349566 -0.123451 0.928743
vt -19.685 20.7101
f 32/83/49 30/84/51 10/85/50

vt -19.685 11.5685
vn -0.40954 0.123451 0.903901
vt -17.6608 6.3164
vt 19.685 11.5685
f 12/86/52 10/87/50 30/88/51

vt 19.685 25.3213
vt 17.6608 30.5735
vn -0.438916 -0.123451 0.890007
vt -19.685 25.3213
f 30/89/51 28/90/53 12/91/52

vt -19.685 16.1798
vn -0.496165 0.123451 0.859407
vt -17.6608 10.9276
vt 19.685 16.1798
f 14/92/54 12/93/52 28/94/53

vt 19.685 29.9326
vt 17.6608 35.1847
vn -0.524038 -0.123451 0.8427
vt -19.685 29.9326
f 28/95/53 26/96/55 14/97/54

vt -19.685 20.791
vn -0.578013 0.123451 0.806636
vt -17.6608 15.5389
vt 19.685 20.791
f 16/98/56 14/99/54 26/100/55

vt 19.685 34.5438
vt 17.6608 39.7959
vt -19.685 34.5438
f 26/101/55 23/102/25 16/103/56

vt -19.685 25.4022
vt -17.6608 20.1501
vt 19.685 25.4022
f 18/104/24 16/105/56 23/106/25

vn 0.129516 0.123451 -0.983863
vn 0.0490677 -2.96574e-15 -0.998795
vn 0.0649144 -0.123451 -0.990225
f 35/68/57 3/69/58 5/70/59

vn 4.25654e-18 -0.349322 -0.937003
f 2/65/60 5/66/59 3/67/58

vn 0.161661 -0.123451 -0.979094
f 5/71/59 7/72/61 35/73/57

vn 0.225328 0.123451 -0.96643
f 33/74/62 35/75/57 7/76/61

vn 0.25685 -0.123451 -0.958534
f 7/77/61 9/78/63 33/79/62

vn 0.31897 0.123451 -0.939691
f 31/80/64 33/81/62 9/82/63

vn 0.349566 -0.123451 -0.928743
f 9/83/63 11/84/65 31/85/64

vn 0.40954 0.123451 -0.903901
f 29/86/66 31/87/64 11/88/65

vn 0.438916 -0.123451 -0.890007
f 11/89/65 13/90/67 29/91/66

vn 0.496165 0.123451 -0.859407
f 27/92/68 29/93/66 13/94/67

vn 0.524038 -0.123451 -0.8427
f 13/95/67 15/96/69 27/97/68

vn 0.578013 0.123451 -0.806636
f 25/98/70 27/99/68 15/100/69

vn 0.604114 -0.123451 -0.787278
f 15/101/69 17/102/71 25/103/70

vn 0.654294 0.123451 -0.746096
f 24/104/72 25/105/70 17/106/71

vn 0.678372 -0.123451 -0.724273
f 17/62/71 19/63/73 24/64/72

v 0.707107 1 -2.03038e-16
vn 0.724273 0.123451 -0.678372
f 37/59/74 24/60/72 19/61/73

vn 0.658345 -0.364915 0.658345
f 37/50/75 22/51/28 24/52/27

v 0.703702 1.125 0.0693086
vn 0.654294 -0.123451 0.746096
f 37/53/75 38/54/76 22/55/28

vt -19.685 34.6247
vn 0.719704 0.364915 -0.590646
vt -17.6608 29.3726
v 0.0693086 1.125 -0.703702
vt 19.685 34.6247
vn 0.772806 1.34494e-16 -0.634642
f 38/107/77 37/108/74 39/109/78

f 19/53/73 39/54/78 37/55/74

vn -0.604114 0.123451 -0.787278
f 39/107/79 19/108/18 21/109/20

vt 19.685 48.3775
v -0.69352 1.25 -0.13795
vt 17.6608 53.6297
vn -0.578013 -0.123451 -0.806636
vt -19.685 48.3775
f 21/110/20 40/111/80 39/112/79

vt -19.685 33.4732
v -0.0693086 1.125 0.703702
vt 19.685 33.4732
vn -0.785977 -0.135982 0.603116
vt -21.5197 38.7945
vn -0.805303 0.135982 0.577058
f 21/113/23 41/114/81 40/115/82

vt 19.685 48.4498
vt -19.685 48.4498
vt 21.5197 43.1285
f 41/116/81 21/117/23 22/118/22

vn 0.604114 0.123451 0.787278
f 41/107/83 22/108/28 38/109/76

v 0.69352 1.25 0.13795
vn 0.578013 -0.123451 0.806636
f 38/110/76 42/111/84 41/112/83

vn 0.805303 0.135982 -0.577058
f 38/113/77 39/114/78 42/115/85

v 0.13795 1.25 -0.69352
vt 19.685 53.0011
vn 0.841308 -0.135982 -0.523173
vt -19.685 53.0011
vt 21.5197 47.6798
f 43/119/86 42/120/85 39/121/78

vt -19.685 38.0245
vt 19.685 38.0245
v 0.676659 1.375 0.205262
vt -21.5197 43.3458
vn 0.857987 0.135982 -0.495346
f 42/122/85 43/123/86 44/124/87

v 0.205262 1.375 -0.676659
vt 19.685 57.5524
vn 0.888537 -0.135982 -0.438191
vt -19.685 57.5524
vt 21.5197 52.231
f 45/125/88 44/126/87 43/127/86

vt -19.685 42.5758
vt 19.685 42.5758
v 0.653281 1.5 0.270598
vt -21.5197 47.8971
vn 0.902408 0.135982 -0.408863
f 44/128/87 45/129/88 46/130/89

v 0.270598 1.5 -0.653281
vt 19.685 62.1036
vn 0.927209 -0.135982 -0.348989
vt -19.685 62.1036
vt 21.5197 56.7823
f 47/131/90 46/132/89 45/133/88

vt -19.685 47.127
vt 19.685 47.127
v 0.623613 1.625 0.333328
vt -21.5197 52.4484
vn 0.938138 0.135982 -0.318443
f 46/134/89 47/135/90 48/136/91

v 0.333328 1.625 -0.623613
vt 19.685 66.6549
vn 0.956951 -0.135982 -0.256426
vt -19.685 66.6549
vt 21.5197 61.3336
f 49/137/92 48/138/91 47/139/90

vt -19.685 51.6783
vt 19.685 51.6783
v 0.587938 1.75 0.392847
vt -21.5197 56.9996
vn 0.964834 0.135982 -0.224956
f 48/140/91 49/141/92 50/142/93

v 0.392847 1.75 -0.587938
vt 19.685 71.2062
vn 0.977477 -0.135982 -0.161394
vt -19.685 71.2062
vt 21.5197 65.8849
f 51/143/94 50/144/93 49/145/92

vt -19.685 56.2296
vt 19.685 56.2296
v 0.546601 1.875 0.448584
vt -21.5197 61.5509
vn 0.982237 0.135982 -0.129302
f 50/146/93 51/147/94 52/148/95

v 0.448584 1.875 -0.546601
vt 19.685 75.7575
vn 0.988589 -0.135982 -0.0648072
vt -19.685 75.7575
vt 21.5197 70.4362
f 53/149/96 52/150/95 51/151/94

vt -19.685 60.7809
vt 19.685 60.7809
v 0.5 2 0.5
vt -21.5197 66.1022
vn 0.998795 8.71394e-16 -0.0490677
f 52/152/95 53/153/96 54/154/97

v 0.5 2 -0.5
vt 19.685 80.3088
vn 0.92482 -0.380406 -4.99943e-16
vt -19.685 80.3088
vt 21.5197 74.9874
f 55/155/98 54/156/97 53/157/96

vn 0 1 -0
v -0.5 2 -0.5
v -0.5 2 0.5
f 55/2/99 56/3/99 57/4/99 54/1/99 

vt -19.685 66.9033
vn 1.66005e-16 0.349322 -0.937003
vt -17.6608 61.6512
vn -0.0649144 0.123451 -0.990225
vt 19.685 66.9033
vn -0.0490677 6.52462e-16 -0.998795
f 55/158/100 53/159/101 56/160/102

v -0.546601 1.875 -0.448584
vt 19.685 76.0449
vn -0.129516 -0.123451 -0.983863
vt 17.6608 81.2971
vt -19.685 76.0449
f 58/161/103 56/162/102 53/163/101

vn -0.982237 0.135982 0.129302
v -0.448584 1.875 0.546601
vn -0.988589 -0.135982 0.0648072
vn -0.998795 9.01442e-16 0.0490677
f 58/152/104 59/153/105 56/154/106

v -0.392847 1.75 0.587938
vn -0.977477 -0.135982 0.161394
f 59/149/105 58/150/104 60/151/107

v -0.587938 1.75 -0.392847
vn -0.964834 0.135982 0.224956
f 61/146/108 60/147/107 58/148/104

v -0.333328 1.625 0.623613
vn -0.956951 -0.135982 0.256426
f 60/143/107 61/144/108 62/145/109

v -0.623613 1.625 -0.333328
vn -0.938138 0.135982 0.318443
f 63/140/110 62/141/109 61/142/108

v -0.270598 1.5 0.653281
vn -0.927209 -0.135982 0.348989
f 62/137/109 63/138/110 64/139/111

v -0.653281 1.5 -0.270598
vn -0.902408 0.135982 0.408863
f 65/134/112 64/135/111 63/136/110

v -0.205262 1.375 0.676659
vn -0.888537 -0.135982 0.438191
f 64/131/111 65/132/112 66/133/113

v -0.676659 1.375 -0.205262
vn -0.857987 0.135982 0.495346
f 67/128/114 66/129/113 65/130/112

v -0.13795 1.25 0.69352
vn -0.841308 -0.135982 0.523173
f 66/125/113 67/126/114 68/127/115

f 40/122/82 68/123/115 67/124/114

f 68/119/115 40/120/82 41/121/81

vt -19.685 39.2359
vn 0.524038 0.123451 0.8427
vt -17.6608 33.9838
vt 19.685 39.2359
f 68/164/116 41/165/83 42/166/84

vt 19.685 52.9888
vt 17.6608 58.2409
vn 0.496165 -0.123451 0.859407
vt -19.685 52.9888
f 42/167/84 44/168/117 68/169/116

vt -19.685 43.8472
vn 0.438916 0.123451 0.890007
vt -17.6608 38.595
vt 19.685 43.8472
f 66/170/118 68/171/116 44/172/117

vt 19.685 57.6
vt 17.6608 62.8521
vn 0.40954 -0.123451 0.903901
vt -19.685 57.6
f 44/173/117 46/174/119 66/175/118

vt -19.685 48.4584
vn 0.349566 0.123451 0.928743
vt -17.6608 43.2063
vt 19.685 48.4584
f 64/176/120 66/177/118 46/178/119

vt 19.685 62.2112
vt 17.6608 67.4634
vn 0.31897 -0.123451 0.939691
vt -19.685 62.2112
f 46/179/119 48/180/121 64/181/120

vt -19.685 53.0696
vn 0.25685 0.123451 0.958534
vt -17.6608 47.8175
vt 19.685 53.0696
f 62/182/122 64/183/120 48/184/121

vt 19.685 66.8225
vt 17.6608 72.0746
vn 0.225328 -0.123451 0.96643
vt -19.685 66.8225
f 48/185/121 50/186/123 62/187/122

vt -19.685 57.6809
vn 0.161661 0.123451 0.979094
vt -17.6608 52.4287
vt 19.685 57.6809
f 60/188/124 62/189/122 50/190/123

vt 19.685 71.4337
vt 17.6608 76.6858
vn 0.129516 -0.123451 0.983863
vt -19.685 71.4337
f 50/191/123 52/192/125 60/193/124

vt -19.685 62.2921
vn 0.0649144 0.123451 0.990225
vt -17.6608 57.04
vt 19.685 62.2921
f 59/194/126 60/195/124 52/196/125

vn 0.0490677 5.93148e-16 0.998795
f 52/161/125 54/162/127 59/163/126

vn -5.02272e-16 0.349322 0.937003
f 57/158/128 59/159/126 54/160/127

vn -0.92482 -0.380406 -2.4367e-16
f 57/155/129 56/156/106 59/157/105

vn -0.496165 -0.123451 -0.859407
vn -0.524038 0.123451 -0.8427
f 40/167/80 67/168/130 43/169/131

vn -0.438916 0.123451 -0.890007
f 45/170/132 43/171/131 67/172/130

vn -0.40954 -0.123451 -0.903901
f 67/173/130 65/174/133 45/175/132

vn -0.349566 0.123451 -0.928743
f 47/176/134 45/177/132 65/178/133

vn -0.31897 -0.123451 -0.939691
f 65/179/133 63/180/135 47/181/134

vn -0.25685 0.123451 -0.958534
f 49/182/136 47/183/134 63/184/135

vn -0.225328 -0.123451 -0.96643
f 63/185/135 61/186/137 49/187/136

vn -0.161661 0.123451 -0.979094
f 51/188/138 49/189/136 61/190/137

f 61/191/137 58/192/103 51/193/138

f 53/194/101 51/195/138 58/196/103

f 43/164/131 39/165/79 40/166/80

