# Alias OBJ Model File
# Exported from SketchUp, (c) 2000-2012 Trimble Navigation Limited
# File units = meters

mtllib Stair.mtl

g Mesh1 stair1 Model

usemtl FrontColor
v 0.875 0.25 -0
vt 0 9.84252
vn 1 0 -0
v 0.875 0.125 -0
vt 0 4.92126
v 0.875 0.125 -1
vt 39.3701 4.92126
v 0.875 0.25 -1
vt 39.3701 9.84252
f 1/1/1 2/2/1 3/3/1 4/4/1 

v 0 1 -0
vt 0 39.3701
vn 0 0 1
v 0 0.75 -0
vt 0 29.5276
v 0.75 0 -0
vt 29.5276 0
v 1 0 -0
vt 39.3701 0
v 1 0.125 -0
vt 34.4488 4.92126
vt 34.4488 9.84252
v 0.75 0.25 -0
vt 29.5276 9.84252
v 0.75 0.375 -0
vt 29.5276 14.7638
v 0.625 0.375 -0
vt 24.6063 14.7638
v 0.625 0.5 -0
vt 24.6063 19.685
v 0.5 0.5 -0
vt 19.685 19.685
v 0.5 0.625 -0
vt 19.685 24.6063
v 0.375 0.625 -0
vt 14.7638 24.6063
v 0.375 0.75 -0
vt 14.7638 29.5276
v 0.25 0.75 -0
vt 9.84252 29.5276
v 0.25 0.875 -0
vt 9.84252 34.4488
v 0.125 0.875 -0
vt 4.92126 34.4488
v 0.125 1 -0
vt 4.92126 39.3701
f 5/5/2 6/6/2 7/7/2 8/8/2 9/3/2 2/9/2 1/10/2 10/11/2 11/12/2 12/13/2 13/14/2 14/15/2 15/16/2 16/17/2 17/18/2 18/19/2 19/20/2 20/21/2 21/22/2 

v 0 1 -1
vt -39.3701 39.3701
vn -1 0 -0
v 0 0.75 -1
vt -39.3701 29.5276
f 22/23/3 23/24/3 6/6/3 5/5/3 

v 1 0 -1
vt -39.3701 -3.88339e-30
vn 8.56091e-32 9.8638e-32 -1
v 0.75 0 -1
vt -29.5276 -3.88339e-30
vt 3.37044e-30 29.5276
vt 3.37044e-30 39.3701
v 0.125 1 -1
vt -4.92126 39.3701
v 0.125 0.875 -1
vt -4.92126 34.4488
v 0.25 0.875 -1
vt -9.84252 34.4488
v 0.25 0.75 -1
vt -9.84252 29.5276
v 0.375 0.75 -1
vt -14.7638 29.5276
v 0.375 0.625 -1
vt -14.7638 24.6063
v 0.5 0.625 -1
vt -19.685 24.6063
v 0.5 0.5 -1
vt -19.685 19.685
v 0.625 0.5 -1
vt -24.6063 19.685
v 0.625 0.375 -1
vt -24.6063 14.7638
v 0.75 0.375 -1
vt -29.5276 14.7638
v 0.75 0.25 -1
vt -29.5276 9.84252
vt -34.4488 9.84252
vt -34.4488 4.92126
v 1 0.125 -1
vt -39.3701 4.92126
f 24/25/4 25/26/4 23/27/4 22/28/4 26/29/4 27/30/4 28/31/4 29/32/4 30/33/4 31/34/4 32/35/4 33/36/4 34/37/4 35/38/4 36/39/4 37/40/4 4/41/4 3/42/4 38/43/4 

vt -29.5276 0
vn 0 -1 -0
vt -29.5276 39.3701
vt -39.3701 0
f 7/44/5 25/45/5 24/23/5 8/46/5 

vt 0 -20.8791
vn -0.707107 -0.707107 -0
vt 0 20.8791
vt -39.3701 20.8791
vt -39.3701 -20.8791
f 7/47/6 6/48/6 23/49/6 25/50/6 

vt 0 0
f 24/8/1 38/3/1 9/2/1 8/51/1 

vt 34.4488 0
vn 0 1 -0
vt 39.3701 39.3701
vt 34.4488 39.3701
f 2/52/7 9/8/7 38/53/7 3/54/7 

vt 4.92126 0
f 21/55/7 26/22/7 22/5/7 5/51/7 

vt 0 34.4488
vt 39.3701 34.4488
f 21/5/1 20/56/1 27/57/1 26/53/1 

vt 9.84252 0
vt 9.84252 39.3701
f 20/55/7 19/58/7 28/59/7 27/22/7 

vt 39.3701 29.5276
f 19/56/1 18/6/1 29/60/1 28/57/1 

vt 14.7638 0
vt 14.7638 39.3701
f 18/58/7 17/61/7 30/62/7 29/59/7 

vt 0 24.6063
vt 39.3701 24.6063
f 17/6/1 16/63/1 31/64/1 30/60/1 

vt 19.685 0
vt 19.685 39.3701
f 16/61/7 15/65/7 32/66/7 31/62/7 

vt 0 19.685
vt 39.3701 19.685
f 15/63/1 14/67/1 33/68/1 32/64/1 

vt 24.6063 0
vt 24.6063 39.3701
f 14/65/7 13/69/7 34/70/7 33/66/7 

vt 0 14.7638
vt 39.3701 14.7638
f 13/67/1 12/71/1 35/72/1 34/68/1 

vt 29.5276 39.3701
f 12/69/7 11/7/7 36/73/7 35/70/7 

f 11/71/1 10/1/1 37/4/1 36/72/1 

f 10/7/7 1/52/7 4/54/7 37/73/7 

g Mesh2 base1 Model

f 24/59/7 25/5/7 7/51/7 8/58/7 

vn 0 0 -1
vt -9.84252 4.92126
v 1 -0.125 -1
vt -9.84252 0
v 0.875 -0.125 -1
vt -4.92126 0
f 25/2/8 24/74/8 39/75/8 40/76/8 

v 1 -0.125 -0
f 41/51/1 39/8/1 24/3/1 8/2/1 

v 0.875 -0.125 -0
vt -9.84252 39.3701
f 41/75/5 42/76/5 40/29/5 39/77/5 

vt 9.84252 4.92126
f 7/2/2 42/55/2 41/58/2 8/78/2 

vt -39.3701 3.47986
vt -39.3701 -3.47986
vt 0 -3.47986
vt 0 3.47986
f 25/79/6 40/80/6 42/81/6 7/82/6 

g Mesh3 connect1 Model

v 1 -0.25 -0
v 1 -0.25 -1
f 43/81/6 42/82/6 40/79/6 44/80/6 

vt 4.92126 4.92126
f 41/83/2 42/2/2 43/55/2

f 41/55/7 39/22/7 40/5/7 42/51/7 

f 39/3/1 41/2/1 43/51/1 44/8/1 

vt -4.92126 4.92126
f 40/2/8 39/84/8 44/76/8

