# Alias OBJ Model File
# Exported from SketchUp, (c) 2000-2012 Trimble Navigation Limited
# File units = meters

mtllib Proof.mtl

g Mesh1 flag1 Model

usemtl FrontColor
v -1.39906e-15 1.90458 -2.5932
vt 102.094 6.87309
vn 1 1.30235e-16 8.27196e-18
v -1.3987e-15 1.90187 -2.5932
vt 102.094 6.76654
v -1.3987e-15 1.90322 -2.61362
vt 102.898 6.81982
f 1/1/1 2/2/1 3/3/1

v -1.39941e-15 1.90593 -2.57278
vt 101.291 6.92637
vn 1 1.3101e-16 7.84038e-18
v -1.3987e-15 1.90052 -2.57278
vt 101.291 6.71326
f 4/4/2 5/5/2 2/2/2 1/1/2 

v -1.39976e-15 1.90728 -2.55236
vt 100.487 6.97965
vn 1 1.31063e-16 1.02945e-17
v -1.3987e-15 1.89916 -2.55236
vt 100.487 6.65998
f 6/6/3 7/7/3 5/5/3 4/4/3 

vn 1 1.32475e-16 6.11406e-18
v -1.40011e-15 1.90864 -2.53194
vt 99.6828 7.03293
v -1.3987e-15 1.89781 -2.53194
vt 99.6828 6.6067
f 6/6/4 8/8/4 9/9/4 7/7/4 

vn 1 1.29993e-16 1.24466e-17
v -1.40082e-15 1.91134 -2.49111
vt 98.075 7.13949
v -1.39906e-15 1.8951 -2.49111
vt 98.075 6.50014
f 8/8/5 10/10/5 11/11/5 9/9/5 

vn 1 2.02383e-16 -2.24364e-17
v -1.40152e-15 1.91405 -2.45027
vt 96.4672 7.24605
v -1.39586e-15 1.8923 -2.44883
vt 96.4105 6.38982
f 10/10/6 12/12/6 13/13/6 11/11/6 

vn 1 1.77527e-16 2.16606e-17
v -1.40293e-15 1.91946 -2.36859
vt 93.2517 7.45917
v -1.3987e-15 1.88698 -2.36859
vt 93.2517 6.18046
f 12/12/7 14/14/7 15/15/7 13/13/7 

vn 1 2.11622e-16 -1.80806e-17
v -1.40434e-15 1.92488 -2.28692
vt 90.0361 7.67229
v -1.39301e-15 1.88138 -2.28403
vt 89.9226 5.95982
f 14/14/8 16/16/8 17/17/8 15/15/8 

vn 1 2.6047e-16 7.98214e-32
v -1.40716e-15 1.9357 -2.12357
vt 83.6049 8.09853
v -1.39017e-15 1.87046 -2.11924
vt 83.4347 5.52982
f 16/16/9 18/18/9 19/19/9 17/17/9 

vn 1 2.6047e-16 4.18924e-32
v -1.40998e-15 1.94653 -1.96021
vt 77.1738 8.52477
v -1.38732e-15 1.85954 -1.95445
vt 76.9468 5.09982
f 18/18/10 20/20/10 21/21/10 19/19/10 

vn 1 1.68556e-16 4.68331e-17
v -1.4128e-15 1.95736 -1.79686
vt 70.7426 8.95101
v -1.40286e-15 1.84909 -1.79686
vt 70.7426 4.68862
f 20/20/11 22/22/11 23/23/11 21/21/11 

vn 1 1.2024e-16 6.84069e-18
v -1.41562e-15 1.96818 -1.63351
vt 64.3115 9.37725
v -1.3987e-15 1.83826 -1.63351
vt 64.3115 4.26238
f 22/22/12 24/24/12 25/25/12 23/23/12 

v -1.41844e-15 1.97901 -1.47016
vt 57.8803 9.80348
vn 1 1.74744e-16 -8.69248e-18
v -1.38742e-15 1.82744 -1.47016
vt 57.8803 3.83615
f 26/26/13 27/27/13 25/25/13 24/24/13 

vn 1 2.35905e-16 -1.68316e-17
v -1.42126e-15 1.98983 -1.30681
vt 51.4492 10.2297
v -1.37614e-15 1.81661 -1.30681
vt 51.4492 3.40991
f 26/26/14 28/28/14 29/29/14 27/27/14 

v -1.42408e-15 2.00066 -1.14346
vt 45.018 10.656
vn 1 2.6047e-16 -5.34041e-33
v -1.37332e-15 1.80579 -1.14346
vt 45.018 2.98367
f 30/30/15 31/31/15 29/29/15 28/28/15 

v -1.4269e-15 2.01149 -0.980107
vt 38.5869 11.0822
vn 1 2.6047e-16 6.41167e-32
v -1.3705e-15 1.79496 -0.980107
vt 38.5869 2.55743
f 32/32/16 33/33/16 31/31/16 30/30/16 

vn 1 2.6047e-16 -5.96636e-33
v -1.42972e-15 2.02231 -0.816756
vt 32.1557 11.5084
v -1.36768e-15 1.78413 -0.816756
vt 32.1557 2.13119
f 32/32/17 34/34/17 35/35/17 33/33/17 

vn 1 2.6047e-16 5.96636e-33
v -1.43254e-15 2.03314 -0.653405
vt 25.7246 11.9347
v -1.36486e-15 1.77331 -0.653405
vt 25.7246 1.70495
f 34/34/18 36/36/18 37/37/18 35/35/18 

v -1.43536e-15 2.04397 -0.490054
vt 19.2934 12.3609
vn 1 2.6047e-16 -7.89552e-32
v -1.36204e-15 1.76248 -0.490054
vt 19.2934 1.27872
f 38/38/19 39/39/19 37/37/19 36/36/19 

vn 1 2.6047e-16 -0
v -1.43818e-15 2.05479 -0.326702
vt 12.8623 12.7872
v -1.35922e-15 1.75165 -0.326702
vt 12.8623 0.852477
f 38/38/20 40/40/20 41/41/20 39/39/20 

v -1.441e-15 2.06562 -0.163351
vt 6.43115 13.2134
v -1.3564e-15 1.74083 -0.163351
vt 6.43115 0.426238
f 40/40/20 42/42/20 43/43/20 41/41/20 

v -1.44382e-15 2.07645 2.25597e-16
vt 0 13.6396
vn 1 2.6047e-16 -7.69822e-32
v -1.35358e-15 1.73 2.25597e-16
vt -2.73496e-46 -9.25375e-31
f 44/44/21 45/45/21 43/43/21 42/42/21 

g Mesh2 top1 Model

v -0.125 2.25322 0.125
vt 0 5.68258
vn -0.816497 0.57735 -0
v -4.51195e-16 2.43 -4.51195e-17
vt -4.92126 14.2065
v -0.125 2.25322 -0.125
vt -9.84252 5.68258
f 46/46/22 47/47/22 48/48/22

vt 4.92126 14.2065
vn 0 0.57735 0.816497
v 0.125 2.25322 0.125
vt 9.84252 5.68258
f 47/49/23 46/46/23 49/50/23

v -4.51195e-16 2.07645 -4.51195e-17
vt -6.95971 0
vn -0.707107 0 -0.707107
vt 0 6.95971
vt -6.95971 13.9194
v 0.125 2.25322 -0.125
vt -13.9194 6.95971
f 50/51/24 46/52/24 47/53/24 51/54/24 

vn 0 -0.57735 0.816497
vt 4.92126 -2.84129
f 46/46/25 50/55/25 49/50/25

vt -4.92126 -2.84129
vn -0.816497 -0.57735 -0
f 50/56/26 46/46/26 48/48/26

vt 0 13.9194
vn -0.707107 0 0.707107
vt -6.95971 6.95971
vt 0 0
vt 6.95971 6.95971
f 47/57/27 48/58/27 50/59/27 49/60/27 

vt 0 2.66454e-15
vn 0 0.57735 -0.816497
vt -4.92126 8.52387
vt -9.84252 2.66454e-15
f 48/61/28 47/62/28 51/63/28

vt 9.84252 2.66454e-15
vn 0.816497 0.57735 -0
vt 4.92126 8.52387
f 51/64/29 47/65/29 49/61/29

vt 4.92126 2.84129
vn 0.816497 -0.57735 -0
vt 9.84252 11.3652
vt 0 11.3652
f 50/66/30 51/67/30 49/68/30

vt -4.92126 2.84129
vn 0 -0.57735 -0.816497
vt -9.84252 11.3652
f 50/69/31 48/68/31 51/70/31

g Mesh3 proof1 Model

v -0.5 0.092 -0.5
vt -7.50509 35.9278
vn 0 -0.701186 -0.712979
v -0.601057 0.194757 -0.601057
vt -3.52647 41.602
vn 0 -0.569889 -0.821722
v 0.601057 0.194757 -0.601057
vt -50.8538 41.602
v 0.5 0.092 -0.5
vt -46.8752 35.9278
f 52/71/32 53/72/33 54/73/33 55/74/32 

v -0.5 0.092 0.5
vt -7.50509 -2.20283
vn -0.712979 -0.701186 -0
v -0.601057 0.194757 0.601057
vt -3.52647 3.47131
vn -0.821722 -0.569889 -0
vt -50.8538 3.47131
vt -46.8752 -2.20283
f 56/75/34 57/76/35 53/77/35 52/78/34 

v 4.51195e-16 0.194757 0.601057
vt 27.1901 3.47131
vn 3.54789e-16 -0.569889 0.821722
vt 3.52647 3.47131
vt 7.50509 -2.20283
vn 2.10458e-16 -0.701186 0.712979
v 0.5 0.092 0.5
vt 46.8752 -2.20283
v 0.601057 0.194757 0.601057
vt 50.8538 3.47131
f 58/79/36 57/80/36 56/81/37 59/82/37 60/83/36 

v 4.51195e-16 0.337449 0.667483
vt 27.1901 12.2665
vn 5.96426e-16 -0.283964 0.958835
v -0.667483 0.337449 0.667483
vt 0.911277 12.2665
vt 3.52647 6.06979
vt 27.1901 6.06979
vt 50.8538 6.06979
v 0.667483 0.337449 0.667483
vt 53.469 12.2665
f 61/84/38 62/85/38 57/86/36 58/87/36 60/88/36 63/89/38 

v 4.51195e-16 0.5015 0.690629
vt 27.1901 20.2132
vn 6.81428e-16 9.81067e-17 1
v -0.690629 0.5015 0.690629
vt 0 20.2132
vt 0.911277 13.6905
vt 27.1901 13.6905
vt 53.469 13.6905
v 0.690629 0.5015 0.690629
vt 54.3803 20.2132
f 64/90/39 65/91/39 62/92/38 61/93/38 63/94/38 66/95/39 

v 4.51195e-16 0.665551 0.667483
vt 27.1901 26.7358
vn 5.64323e-16 0.283964 0.958835
v -0.667483 0.665551 0.667483
vt 0.911277 26.7358
v 0.667483 0.665551 0.667483
vt 53.469 26.7358
f 67/96/40 68/97/40 65/91/39 64/90/39 66/95/39 69/98/40 

v 4.51195e-16 0.808243 0.601057
vt 27.1901 30.943
vn 3.39598e-16 0.569889 0.821722
v -0.601057 0.808243 0.601057
vt 3.52647 30.943
vt 0.911277 24.7463
vt 27.1901 24.7463
vt 53.469 24.7463
v 0.601057 0.808243 0.601057
vt 50.8538 30.943
f 70/99/41 71/100/41 68/101/40 67/102/40 69/103/40 72/104/41 

v 4.51195e-16 0.911 0.5
vt 27.1901 31.3114
vn 8.25971e-17 0.742228 0.670147
v -0.5 0.911 0.5
vt 7.50509 31.3114
vt 3.52647 25.6373
vt 27.1901 25.6373
vt 50.8538 25.6373
v 0.5 0.911 0.5
vt 46.8752 31.3114
f 73/105/42 74/106/42 71/107/41 70/108/41 72/109/41 75/110/42 

v 3.60956e-16 1.00501 0.382566
vt 27.1901 34.6145
vn -3.30985e-16 0.732772 0.680474
v -0.382566 1.00501 0.382566
vt 12.1285 34.6145
vt 7.50509 28.692
vt 27.1901 28.692
vt 46.8752 28.692
v 0.382566 1.00501 0.382566
vt 42.2518 34.6145
f 76/111/43 77/112/43 74/113/42 73/114/42 75/115/42 78/116/43 

v 3.60956e-16 1.1193 0.276301
vt 27.1901 43.8694
vn -1.14067e-15 0.629494 0.777006
v -0.276301 1.1193 0.276301
vt 16.3122 43.8694
vt 12.1285 37.7255
vt 27.1901 37.7255
vt 42.2518 37.7255
v 0.276301 1.1193 0.276301
vt 38.0681 43.8694
f 79/117/44 80/118/44 77/119/43 76/120/43 78/121/43 81/122/44 

v 3.60956e-16 1.25164 0.18326
vt 27.1901 52.3479
vn -2.61838e-15 0.521961 0.852969
v -0.18326 1.25164 0.18326
vt 19.9752 52.3479
vt 16.3122 45.9787
vt 27.1901 45.9787
vt 38.0681 45.9787
v 0.18326 1.25164 0.18326
vt 34.4051 52.3479
f 82/123/45 83/124/45 80/125/44 79/126/44 81/127/44 84/128/45 

v 3.60956e-16 1.39949 0.105244
vt 27.1901 60.0773
vn -5.82328e-15 0.412961 0.910749
v -0.105244 1.39949 0.105244
vt 23.0467 60.0773
vt 19.9752 53.4959
vt 27.1901 53.4959
vt 34.4051 53.4959
v 0.105244 1.39949 0.105244
vt 31.3336 60.0773
f 85/129/46 86/130/46 83/131/45 82/132/45 84/133/45 87/134/46 

v 3.60956e-16 1.55998 0.0437606
vt 27.1901 67.0876
vn -1.35062e-14 0.303994 0.952674
v -0.0437606 1.55998 0.0437606
vt 25.4673 67.0876
vt 23.0467 60.3213
vt 27.1901 60.3213
vt 31.3336 60.3213
v 0.0437606 1.55998 0.0437606
vt 28.913 67.0876
f 88/135/47 89/136/47 86/137/46 85/138/46 87/139/46 90/140/47 

v 3.60956e-16 1.73 -4.51195e-16
vt 27.1901 73.386
vn -1.89067e-14 0.249254 0.968438
vt 25.4673 66.4739
vt 27.1901 66.4739
vt 28.913 66.4739
f 91/141/48 89/142/47 88/143/47 90/144/47 

vt -25.4673 66.4739
vn -0.952674 0.303994 -0
vt -27.1901 73.386
vn -0.968438 0.249254 -0
v -0.0437606 1.55998 -0.0437606
vt -28.913 66.4739
f 89/145/49 91/146/50 92/147/49

vt -25.4673 52.9194
vn 0 0.303994 -0.952674
vt -27.1901 59.8315
vn 0 0.249254 -0.968438
v 0.0437606 1.55998 -0.0437606
vt -28.913 52.9194
f 92/148/51 91/149/52 93/150/51

vt 28.913 52.9194
vn 0.952674 0.303994 -0
vt 27.1901 59.8315
vn 0.968438 0.249254 -0
vt 25.4673 52.9194
f 93/151/53 91/152/54 90/153/53

v 0.105244 1.39949 -0.105244
vt 31.3336 40.867
vn 0.910749 0.412961 -0
vt 28.913 47.6332
vt 25.4673 47.6332
vt 23.0467 40.867
f 94/154/55 93/155/53 90/156/53 87/157/55 

v -0.105244 1.39949 -0.105244
vt -23.0467 40.867
vn 0 0.412961 -0.910749
vt -25.4673 47.6332
vt -28.913 47.6332
vt -31.3336 40.867
f 95/158/56 92/159/51 93/160/51 94/161/56 

vt -23.0467 60.3213
vn -0.910749 0.412961 -0
vt -25.4673 67.0876
vt -28.913 67.0876
vt -31.3336 60.3213
f 86/162/57 89/163/49 92/164/49 95/165/57 

vt -19.9752 53.4959
vn -0.852969 0.521961 -0
vt -23.0467 60.0773
vt -31.3336 60.0773
v -0.18326 1.25164 -0.18326
vt -34.4051 53.4959
f 83/166/58 86/167/57 95/168/57 96/169/58 

vt -19.9752 28.1169
vn 0 0.521961 -0.852969
vt -23.0467 34.6983
vt -31.3336 34.6983
v 0.18326 1.25164 -0.18326
vt -34.4051 28.1169
f 96/170/59 95/171/56 94/172/56 97/173/59 

vt 34.4051 28.1169
vn 0.852969 0.521961 -0
vt 31.3336 34.6983
vt 23.0467 34.6983
vt 19.9752 28.1169
f 97/174/60 94/175/55 87/176/55 84/177/60 

v 0.276301 1.1193 -0.276301
vt 38.0681 14.7037
vn 0.777006 0.629494 -0
vt 34.4051 21.0729
vt 19.9752 21.0729
vt 16.3122 14.7037
f 98/178/61 97/179/60 84/180/60 81/181/61 

v -0.276301 1.1193 -0.276301
vt -16.3122 14.7037
vn 0 0.629494 -0.777006
vt -19.9752 21.0729
vt -34.4051 21.0729
vt -38.0681 14.7037
f 99/182/62 96/183/59 97/184/59 98/185/62 

vt -16.3122 45.9787
vn -0.777006 0.629494 -0
vt -19.9752 52.3479
vt -34.4051 52.3479
vt -38.0681 45.9787
f 80/186/63 83/187/58 96/188/58 99/189/63 

vt -12.1285 37.7255
vn -0.680474 0.732772 -0
vt -16.3122 43.8694
vt -38.0681 43.8694
v -0.382566 1.00501 -0.382566
vt -42.2518 37.7255
f 77/190/64 80/191/63 99/192/63 100/193/64 

vt -12.1285 0.695388
vn 0 0.732772 -0.680474
vt -16.3122 6.83928
vt -38.0681 6.83928
v 0.382566 1.00501 -0.382566
vt -42.2518 0.695388
f 100/194/65 99/195/62 98/196/62 101/197/65 

vt 42.2518 0.695388
vn 0.680474 0.732772 -0
vt 38.0681 6.83928
vt 16.3122 6.83928
vt 12.1285 0.695388
f 101/198/66 98/199/61 81/200/61 78/201/66 

v 0.5 0.911 -0.5
vt 46.8752 -13.7604
vn 0.670147 0.742228 -0
vt 42.2518 -7.83795
vt 12.1285 -7.83795
vt 7.50509 -13.7604
f 102/202/67 101/203/66 78/204/66 75/205/67 

v -0.5 0.911 -0.5
vt -7.50509 -13.7604
vn 0 0.742228 -0.670147
vt -12.1285 -7.83795
vt -42.2518 -7.83795
vt -46.8752 -13.7604
f 103/206/68 100/207/65 101/208/65 102/209/68 

vt -7.50509 28.692
vn -0.670147 0.742228 -0
vt -12.1285 34.6145
vt -42.2518 34.6145
vt -46.8752 28.692
f 74/210/69 77/211/64 100/212/64 103/213/69 

vt -3.52647 25.6373
vn -0.821722 0.569889 -0
vt -7.50509 31.3114
vt -46.8752 31.3114
v -0.601057 0.808243 -0.601057
vt -50.8538 25.6373
f 71/214/70 74/215/69 103/216/69 104/217/70 

vt -3.52647 -12.4934
vn 0 0.569889 -0.821722
vt -7.50509 -6.81922
vt -46.8752 -6.81922
v 0.601057 0.808243 -0.601057
vt -50.8538 -12.4934
f 104/218/71 103/219/68 102/220/68 105/221/71 

vt 50.8538 -12.4934
vn 0.821722 0.569889 -0
vt 46.8752 -6.81922
vt 7.50509 -6.81922
vt 3.52647 -12.4934
f 105/222/72 102/223/67 75/224/67 72/225/72 

v 0.667483 0.665551 -0.667483
vt 53.469 1.79625
vn 0.958835 0.283964 -0
vt 50.8538 7.99295
vt 3.52647 7.99295
vt 0.911277 1.79625
f 106/226/73 105/227/72 72/228/72 69/229/73 

v -0.667483 0.665551 -0.667483
vt -0.911277 1.79625
vn 0 0.283964 -0.958835
vt -3.52647 7.99295
vt -50.8538 7.99295
vt -53.469 1.79625
f 107/230/74 104/231/71 105/232/71 106/233/74 

vt -0.911277 24.7463
vn -0.958835 0.283964 -0
vt -3.52647 30.943
vt -50.8538 30.943
vt -53.469 24.7463
f 68/234/75 71/235/70 104/236/70 107/237/75 

vn -1 -7.00762e-17 -0
vt -0.911277 26.7358
vt -53.469 26.7358
v -0.690629 0.5015 -0.690629
vt -54.3803 20.2132
f 65/91/76 68/238/75 107/239/75 108/240/76 

vt 0 12.6157
vn 0 -7.00762e-17 -1
vt -0.911277 19.1384
vt -53.469 19.1384
v 0.690629 0.5015 -0.690629
vt -54.3803 12.6157
f 108/241/77 107/242/74 106/243/74 109/244/77 

vt 54.3803 12.6157
vn 1 -5.6061e-17 -0
vt 53.469 19.1384
vt 0.911277 19.1384
vt 4.26326e-14 12.6157
f 109/245/78 106/246/73 69/247/73 66/248/78 

v 0.667483 0.337449 -0.667483
vt 53.469 21.288
vn 0.958835 -0.283964 -0
vt 54.3803 27.8106
vt 4.26326e-14 27.8106
vt 0.911277 21.288
f 110/249/79 109/250/78 66/251/78 63/252/79 

v -0.667483 0.337449 -0.667483
vt -0.911277 21.288
vn 0 -0.283964 -0.958835
vt 0 27.8106
vt -54.3803 27.8106
vt -53.469 21.288
f 111/253/80 108/254/77 109/255/77 110/256/80 

vt -0.911277 13.6905
vn -0.958835 -0.283964 -0
vt -53.469 13.6905
f 62/257/81 65/91/76 108/240/76 111/258/81 

vt -3.52647 6.06979
vt -0.911277 12.2665
vt -53.469 12.2665
vt -50.8538 6.06979
f 57/259/35 62/260/81 111/261/81 53/262/35 

vt -3.52647 29.0199
vt -0.911277 35.2166
vt -53.469 35.2166
vt -50.8538 29.0199
f 53/263/33 111/264/80 110/265/80 54/266/33 

vt 50.8538 29.0199
vn 0.821722 -0.569889 -0
vt 53.469 35.2166
vt 0.911277 35.2166
vt 3.52647 29.0199
f 54/267/82 110/268/79 63/269/79 60/270/82 

vt 46.8752 35.9278
vn 0.712979 -0.701186 -0
vt 50.8538 41.602
vt 3.52647 41.602
vt 7.50509 35.9278
f 55/271/83 54/272/82 60/273/82 59/274/83 

vt 46.8752 7.50509
vn 0 1 -0
v 0.625 0.092 0.625
vt 51.7964 2.58383
vt 46.8752 46.8752
f 59/275/84 112/276/84 55/277/84

vt 7.50509 7.50509
f 56/278/84 112/276/84 59/275/84

v -0.625 0.092 0.625
vt 2.58383 2.58383
f 56/278/84 113/279/84 112/276/84

v -0.625 0.092 -0.625
vt 2.58383 51.7964
f 113/279/84 56/278/84 114/280/84

vt 7.50509 46.8752
f 52/281/84 114/280/84 56/278/84

v 0.625 0.092 -0.625
vt 51.7964 51.7964
f 114/280/84 52/281/84 115/282/84

f 115/282/84 52/281/84 55/277/84

f 115/282/84 55/277/84 112/276/84

vt 51.7964 4.29134
vn 1 0 -0
vt 2.58383 4.29134
v 0.625 -0.017 0.625
vt 2.58383 8.88178e-16
v 0.625 -0.017 -0.625
vt 51.7964 8.88178e-16
f 115/283/85 112/284/85 116/285/85 117/286/85 

v -0.625 -0.017 0.625
vn 0 0 1
f 118/285/86 116/286/86 112/283/86 113/284/86 

vt -51.7964 51.7964
vn 0 -1 -0
vt -51.7964 2.58383
vt -2.58383 2.58383
v -0.625 -0.017 -0.625
vt -2.58383 51.7964
f 117/287/87 116/288/87 118/289/87 119/290/87 

vt -2.58383 4.29134
vn -1 0 -0
vt -51.7964 4.29134
vt -51.7964 8.88178e-16
vt -2.58383 8.88178e-16
f 113/291/88 114/292/88 119/293/88 118/294/88 

vn 0 0 -1
f 114/291/89 115/292/89 117/293/89 119/294/89 

