# Alias OBJ Model File
# Exported from SketchUp, (c) 2000-2012 Trimble Navigation Limited
# File units = meters

mtllib RoundBlock.mtl

g Mesh1 curve1 Model

usemtl FrontColor
v 0.608761 0.793353 -0
vt 0 2.57493
vn 0.608761 0.793353 -0
v 0.707107 0.707107 -0
vt 0 -2.57493
vn 0.707107 0.707107 -0
v 0.707107 0.707107 -1
vt 39.3701 -2.57493
v 0.608761 0.793353 -1
vt 39.3701 2.57493
f 1/1/1 2/2/2 3/3/2 4/4/1 

v 0.793353 0.608761 -0
vn 0.793353 0.608761 -0
v 0.793353 0.608761 -1
f 2/1/2 5/2/3 6/3/3 3/4/2 

v 0.866025 0.5 -0
vn 0.866025 0.5 -0
v 0.866025 0.5 -1
f 5/1/3 7/2/4 8/3/4 6/4/3 

v 0.92388 0.382683 -0
vn 0.92388 0.382683 -0
v 0.92388 0.382683 -1
f 7/1/4 9/2/5 10/3/5 8/4/4 

v 0.965926 0.258819 -0
vn 0.965926 0.258819 -0
v 0.965926 0.258819 -1
f 9/1/5 11/2/6 12/3/6 10/4/5 

v 0.991445 0.130526 -0
vn 0.991445 0.130526 -0
v 0.991445 0.130526 -1
f 11/1/6 13/2/7 14/3/7 12/4/6 

v 1 0 -0
vn 0.997859 0.0654031 -0
v 1 0 -1
f 13/1/7 15/2/8 16/3/8 14/4/7 

v 0.5 0.866025 -0
vn 0.5 0.866025 -0
v 0.5 0.866025 -1
f 17/1/9 1/2/1 4/3/1 18/4/9 

v 0.382683 0.92388 -0
vn 0.382683 0.92388 -0
v 0.382683 0.92388 -1
f 19/1/10 17/2/9 18/3/9 20/4/10 

v 0.258819 0.965926 -0
vn 0.258819 0.965926 -0
v 0.258819 0.965926 -1
f 21/1/11 19/2/10 20/3/10 22/4/11 

v 0.130526 0.991445 -0
vn 0.130526 0.991445 -0
v 0.130526 0.991445 -1
f 23/1/12 21/2/11 22/3/11 24/4/12 

v 0 1 -0
vn 0.0654031 0.997859 -0
v 0 1 -1
f 25/1/13 23/2/12 24/3/12 26/4/13 

g Mesh2 round_face_1_1 Model

vt -39.3701 0
vn 0 0 -1
v 0 0 -1
vt 0 0
vt 0 39.3701
vt -5.13883 39.0333
vt -10.1897 38.0286
vt -15.0663 36.3732
vt -19.685 34.0955
vt -23.967 31.2344
vt -27.8388 27.8388
vt -31.2344 23.967
vt -34.0955 19.685
vt -36.3732 15.0663
vt -38.0286 10.1897
vt -39.0333 5.13883
f 16/5/14 27/6/14 26/7/14 24/8/14 22/9/14 20/10/14 18/11/14 4/12/14 3/13/14 6/14/14 8/15/14 10/16/14 12/17/14 14/18/14 

g Mesh3 round_face_2_1 Model

v 0 0 -0
vn 0 0 1
vt 39.3701 0
vt 39.0333 5.13883
v 0.965926 0.258819 -0
vt 38.0286 10.1897
v 0.92388 0.382683 -0
vt 36.3732 15.0663
vt 34.0955 19.685
v 0.793353 0.608761 -0
vt 31.2344 23.967
v 0.707107 0.707107 -0
vt 27.8388 27.8388
v 0.608761 0.793353 -0
vt 23.967 31.2344
v 0.5 0.866025 -0
vt 19.685 34.0955
vt 15.0663 36.3732
vt 10.1897 38.0286
v 0.130526 0.991445 -0
vt 5.13883 39.0333
f 28/6/15 15/19/15 13/20/15 29/21/15 30/22/15 7/23/15 31/24/15 32/25/15 33/26/15 34/27/15 19/28/15 21/29/15 35/30/15 25/7/15 

g Mesh4 bottom1 Model

vt -39.3701 39.3701
vn 0 -1 -0
f 16/31/16 15/5/16 28/6/16 27/7/16 

g Mesh5 side1 Model

vn -1 0 -0
f 26/31/17 27/5/17 28/6/17 25/7/17 

