# Alias OBJ Model File
# Exported from SketchUp, (c) 2000-2012 Trimble Navigation Limited
# File units = meters

mtllib BlockArc.mtl

g Mesh1 block_arc1 Model

usemtl FrontColor
v 0 -0.125 -1
vt -39.3701 0
vn -1 0 -0
v 0 -0.125 -0
vt 0 0
v 0 1 -0
vt 0 44.2913
v 0 1 -1
vt -39.3701 44.2913
f 1/1/1 2/2/1 3/3/1 4/4/1 

vt 0 39.3701
vn 0 -1 -0
v 0.125 -0.125 -1
vt -4.92126 39.3701
v 0.125 -0.125 -0
vt -4.92126 0
f 1/5/2 5/6/2 6/7/2 2/2/2 

v 1 1 -1
vn 0 0 -1
v 1 0.75 -1
vt -39.3701 34.4488
v 0.88579 0.742514 -1
vt -34.8736 34.1541
v 0.773533 0.720185 -1
vt -30.4541 33.275
v 0.665152 0.683395 -1
vt -26.1871 31.8266
v 0.5625 0.632772 -1
vt -22.1457 29.8336
v 0.467334 0.569184 -1
vt -18.399 27.3301
v 0.381282 0.493718 -1
vt -15.0111 24.359
v 0.305816 0.407666 -1
vt -12.04 20.9711
v 0.242228 0.3125 -1
vt -9.53653 17.2244
v 0.191605 0.209848 -1
vt -7.54352 13.183
v 0.154815 0.101467 -1
vt -6.09507 8.91601
v 0.132486 -0.0107896 -1
vt -5.21597 4.49647
f 7/4/3 8/8/3 9/9/3 10/10/3 11/11/3 12/12/3 13/13/3 14/14/3 15/15/3 16/16/3 17/17/3 18/18/3 19/19/3 5/7/3 1/2/3 4/3/3 

v 1 0.75 -0
vt 0 34.4488
vn 1 0 -0
vt 39.3701 34.4488
vt 39.3701 44.2913
v 1 1 -0
f 20/20/4 8/21/4 7/22/4 21/3/4 

vt 0 41.5388
vn 0.0654031 -0.997859 -0
v 0.88579 0.742514 -0
vt 0 37.0327
vn 0.130526 -0.991445 -0
vt 39.3701 37.0327
vt 39.3701 41.5388
f 20/23/5 22/24/6 9/25/6 8/26/5 

vn 0 0 1
vt 4.92126 0
v 0.132486 -0.0107896 -0
vt 5.21597 4.49647
v 0.154815 0.101467 -0
vt 6.09507 8.91601
v 0.191605 0.209848 -0
vt 7.54352 13.183
v 0.242228 0.3125 -0
vt 9.53653 17.2244
v 0.305816 0.407666 -0
vt 12.04 20.9711
v 0.381282 0.493718 -0
vt 15.0111 24.359
v 0.467334 0.569184 -0
vt 18.399 27.3301
v 0.5625 0.632772 -0
vt 22.1457 29.8336
v 0.665152 0.683395 -0
vt 26.1871 31.8266
v 0.773533 0.720185 -0
vt 30.4541 33.275
vt 34.8736 34.1541
f 2/2/7 6/27/7 23/28/7 24/29/7 25/30/7 26/31/7 27/32/7 28/33/7 29/34/7 30/35/7 31/36/7 32/37/7 22/38/7 20/21/7 21/22/7 3/3/7 

vt 0 4.82799
vn 0.991445 -0.130526 -0
vt 0 0.321866
vn 0.997859 -0.0654031 -0
vt 39.3701 0.321866
vt 39.3701 4.82799
f 23/39/8 6/40/9 5/41/9 19/42/8 

vt 0 9.93378
vn 0.965926 -0.258819 -0
vt 0 5.42766
vt 39.3701 5.42766
vt 39.3701 9.93378
f 24/43/10 23/44/8 19/45/8 18/46/10 

vt 0 14.9082
vn 0.92388 -0.382683 -0
vt 0 10.402
vt 39.3701 10.402
vt 39.3701 14.9082
f 25/47/11 24/48/10 18/49/10 17/50/11 

vt 0 19.666
vn 0.866025 -0.5 -0
vt 0 15.1599
vt 39.3701 15.1599
vt 39.3701 19.666
f 26/51/12 25/52/11 17/53/11 16/54/12 

vt 0 24.1259
vn 0.793353 -0.608761 -0
vt 0 19.6198
vt 39.3701 19.6198
vt 39.3701 24.1259
f 27/55/13 26/56/12 16/57/12 15/58/13 

vt 0 28.2116
vn 0.707107 -0.707107 -0
vt 0 23.7054
vt 39.3701 23.7054
vt 39.3701 28.2116
f 28/59/14 27/60/13 15/61/13 14/62/14 

vt 0 31.8531
vn 0.608761 -0.793353 -0
vt 0 27.3469
vt 39.3701 27.3469
vt 39.3701 31.8531
f 29/63/15 28/64/14 14/65/14 13/66/15 

vt 0 34.9881
vn 0.5 -0.866025 -0
vt 0 30.482
vt 39.3701 30.482
vt 39.3701 34.9881
f 30/67/16 29/68/15 13/69/15 12/70/16 

vt 0 37.563
vn 0.382683 -0.92388 -0
vt 0 33.0569
vt 39.3701 33.0569
vt 39.3701 37.563
f 31/71/17 30/72/16 12/73/16 11/74/17 

vt 0 39.5338
vn 0.258819 -0.965926 -0
vt 0 35.0277
vt 39.3701 35.0277
vt 39.3701 39.5338
f 32/75/18 31/76/17 11/77/17 10/78/18 

vt 0 40.8667
vt 0 36.3605
vt 39.3701 36.3605
vt 39.3701 40.8667
f 22/79/6 32/80/18 10/81/18 9/82/6 

g Mesh2 surface1 Model

vn 0 1 -0
vt 39.3701 0
vt 39.3701 39.3701
f 3/2/19 21/83/19 7/84/19 4/5/19 

