# Alias OBJ Model File
# Exported from SketchUp, (c) 2000-2012 Trimble Navigation Limited
# File units = meters

mtllib Floor-dcrt.mtl

g Mesh1 floor1 Model

usemtl FrontColor
v 1 -0.25 -1
vt -39.3701 0
vn 0 0 -1
v 0 -0.25 -1
vt 0 0
v 0 0 -1
vt 0 9.84252
v 1 0 -1
vt -39.3701 9.84252
f 1/1/1 2/2/1 3/3/1 4/4/1 

vt 0 39.3701
vn 0 -1 -0
vt -39.3701 39.3701
v 1 -0.25 -0
v 0 -0.25 -0
f 2/5/2 1/6/2 5/1/2 6/2/2 

vn 1 0 -0
vt 39.3701 0
vt 39.3701 9.84252
v 1 0 -0
f 5/2/3 1/7/3 4/8/3 7/3/3 

vt 39.3701 39.3701
vn 0 1 -0
v 0 0 -0
f 4/9/4 3/5/4 8/2/4 7/7/4 

vn -1 0 -0
f 2/1/5 6/2/5 8/3/5 3/4/5 

vn 0 0 1
f 6/2/6 5/7/6 7/8/6 8/3/6 

g Mesh2 decoration1 Model

v 0 -0.375 -0
v 0.125 -0.375 -0
vt 4.92126 0
v 0.25 -0.25 -0
vt 9.84252 4.92126
vt 0 4.92126
f 9/2/6 10/10/6 11/11/6 6/12/6 

v 0.125 -0.375 -0.125
vt 4.92126 3.47986
vn 0.707107 -0.707107 -0
v 0.25 -0.25 -0.125
vt 4.92126 10.4396
vt 0 10.4396
vt 0 3.47986
f 12/13/7 13/14/7 11/15/7 10/16/7 

vt -9.84252 4.92126
vt -4.92126 0
v 0.125 -0.25 -0.125
vt -4.92126 4.92126
f 13/17/1 12/18/1 14/19/1

v 0.125 -0.25 -0.25
vt 4.92126 4.92126
f 12/10/3 15/11/3 14/20/3

vt -4.92126 10.4396
vn 0 -0.707107 -0.707107
vt -4.92126 3.47986
v 0 -0.375 -0.125
v 0 -0.25 -0.25
f 15/21/8 12/22/8 16/16/8 17/15/8 

f 6/12/5 17/17/5 16/18/5 9/2/5 

g Mesh3 decoration2 Model

v 1 -0.375 -0
vn 1 0 4.51028e-17
v 1 -0.375 -0.125
v 1 -0.25 -0.25
v 1 -0.25 -0
f 18/2/9 19/10/9 20/11/9 21/12/9 

v 0.875 -0.375 -0.125
vn 3.18925e-17 -0.707107 -0.707107
v 0.875 -0.25 -0.25
f 22/13/10 23/14/10 20/15/10 19/16/10 

vn -1 0 -4.51028e-17
v 0.875 -0.25 -0.125
f 23/17/11 22/18/11 24/19/11

vn 4.51028e-17 0 -1
v 0.75 -0.25 -0.125
f 22/10/12 25/11/12 24/20/12

vn -0.707107 -0.707107 -3.18925e-17
v 0.875 -0.375 -5.63785e-18
v 0.75 -0.25 -1.12757e-17
f 25/21/13 22/22/13 26/16/13 27/15/13 

vn -4.51028e-17 0 1
f 21/12/14 27/17/14 26/18/14 18/2/14 

g Mesh4 decoration3 Model

v 1 -0.375 -1
vn 3.81639e-17 0 -1
v 0.875 -0.375 -1
v 0.75 -0.25 -1
v 1 -0.25 -1
f 28/2/15 29/10/15 30/11/15 31/12/15 

v 0.875 -0.375 -0.875
vn -0.707107 -0.707107 -2.6986e-17
v 0.75 -0.25 -0.875
f 32/13/16 33/14/16 30/15/16 29/16/16 

vn -3.81639e-17 0 1
v 0.875 -0.25 -0.875
f 33/17/17 32/18/17 34/19/17

vn -1 0 -3.81639e-17
v 0.875 -0.25 -0.75
f 32/10/18 35/11/18 34/20/18

vn -2.6986e-17 -0.707107 0.707107
v 1 -0.375 -0.875
v 1 -0.25 -0.75
f 35/21/19 32/22/19 36/16/19 37/15/19 

vn 1 0 3.81639e-17
f 31/12/20 37/17/20 36/18/20 28/2/20 

g Mesh5 decoration4 Model

v 0 -0.375 -1
vn -1 0 8.32667e-17
v 1.04083e-17 -0.375 -0.875
v 2.08167e-17 -0.25 -0.75
f 38/2/21 39/10/21 40/11/21 2/12/21 

v 0.125 -0.375 -0.875
vn 5.88785e-17 -0.707107 0.707107
v 0.125 -0.25 -0.75
f 41/13/22 42/14/22 40/15/22 39/16/22 

vn 1 0 -8.32667e-17
v 0.125 -0.25 -0.875
f 42/17/23 41/18/23 43/19/23

vn 8.32667e-17 0 1
v 0.25 -0.25 -0.875
f 41/10/24 44/11/24 43/20/24

vn 0.707107 -0.707107 -5.88785e-17
v 0.125 -0.375 -1
v 0.25 -0.25 -1
f 44/21/25 41/22/25 45/16/25 46/15/25 

vn -8.32667e-17 0 -1
f 2/12/26 46/17/26 45/18/26 38/2/26 

