# Alias OBJ Model File
# Exported from SketchUp, (c) 2000-2012 Trimble Navigation Limited
# File units = meters

mtllib Body.mtl

g Mesh1 body1 Model

usemtl FrontColor
v 1.80478e-16 0 4.51195e-17
vt -16.5604 0.759775
vn -1.32744e-17 -1 1.85841e-16
v -0.212132 0.8 -0.212132
vt -15.0188 34.3622
vn -0.662085 -0.351123 -0.662085
v -0.15 0.8 -0.259808
vt -18.1021 34.3622
vn -0.468165 -0.351123 -0.810885
f 1/1/1 2/2/2 3/3/3

vt -16.5604 -0.759775
vn -2.38939e-16 -1 1.46018e-16
v -0.259808 0.8 -0.15
vt -15.0188 32.8427
vn -0.810885 -0.351123 -0.468165
vt -18.1021 32.8427
f 1/4/4 4/5/5 2/6/2

vt -15.4318 -2.22755
vn -1.59292e-16 -1 5.97347e-17
v -0.289778 0.8 -0.0776457
vt -13.8902 31.3749
vn -0.904425 -0.351123 -0.24234
vt -16.9735 31.3749
f 1/7/6 5/8/7 4/9/5

vt -13.2516 -3.54352
vn -1.85841e-16 -1 1.11173e-16
v -0.3 0.8 -4.51195e-17
vt -11.71 30.0589
vn -0.936329 -0.351123 -4.54442e-16
vt -14.7933 30.0589
f 1/10/8 6/11/9 5/12/7

vt -10.1683 -4.618
vn -2.38939e-16 -1 9.12613e-17
v -0.289778 0.8 0.0776457
vt -8.62668 28.9845
vn -0.904425 -0.351123 0.24234
vt -11.71 28.9845
f 1/13/10 7/14/11 6/15/9

vt -6.39208 -5.37778
vn -1.85841e-16 -1 1.12832e-16
v -0.259808 0.8 0.15
vt -4.85043 28.2247
vn -0.810885 -0.351123 0.468165
vt -7.93373 28.2247
f 1/16/12 8/17/13 7/18/11

vt -2.18022 -5.77107
vn -1.32744e-16 -1 7.96462e-17
v -0.212132 0.8 0.212132
vt -0.638571 27.8314
vn -0.662085 -0.351123 0.662085
vt -3.72187 27.8314
f 1/19/14 9/20/15 8/21/13

vt 2.18022 -5.77107
vn -6.63719e-17 -1 1.06195e-16
v -0.15 0.8 0.259808
vt 3.72187 27.8314
vn -0.468165 -0.351123 0.810885
vt 0.638571 27.8314
f 1/22/16 10/23/17 9/24/15

vt 6.39208 -5.37778
vn -1.46018e-16 -1 2.65487e-17
v -0.0776457 0.8 0.289778
vt 7.93373 28.2247
vn -0.24234 -0.351123 0.904425
vt 4.85043 28.2247
f 1/25/18 11/26/19 10/27/17

vt 10.1683 -4.618
vn -1.39381e-16 -1 1.32744e-17
v -4.51195e-17 0.8 0.3
vt 11.71 28.9845
vn -5.80287e-16 -0.351123 0.936329
vt 8.62668 28.9845
f 1/28/20 12/29/21 11/30/19

vt 13.2516 -3.54352
vn -7.13498e-17 -1 -1.06195e-16
v 0.0776457 0.8 0.289778
vt 14.7933 30.0589
vn 0.24234 -0.351123 0.904425
vt 11.71 30.0589
f 1/31/22 13/32/23 12/33/21

vt 15.4318 -2.22755
vn -1.32744e-16 -1 -1.46018e-16
v 0.15 0.8 0.259808
vt 16.9735 31.3749
vn 0.468165 -0.351123 0.810885
vt 13.8902 31.3749
f 1/34/24 14/35/25 13/36/23

vt 16.5604 -0.759775
vn -1.06195e-16 -1 3.98231e-17
v 0.212132 0.8 0.212132
vt 18.1021 32.8427
vn 0.662085 -0.351123 0.662085
vt 15.0188 32.8427
f 1/37/26 15/38/27 14/39/25

vt 16.5604 0.759775
vn -1.06195e-16 -1 2.65487e-17
v 0.259808 0.8 0.15
vt 18.1021 34.3622
vn 0.810885 -0.351123 0.468165
vt 15.0188 34.3622
f 1/40/28 16/41/29 15/42/27

vt 15.4318 2.22755
v 0.289778 0.8 0.0776457
vt 16.9735 35.83
vn 0.904425 -0.351123 0.24234
vt 13.8902 35.83
f 1/43/6 17/44/30 16/45/29

vt 13.2516 3.54352
vn -2.38939e-16 -1 -8.29648e-18
v 0.3 0.8 -0
vt 14.7933 37.146
vn 0.936329 -0.351123 3.28597e-16
vt 11.71 37.146
f 1/46/31 18/47/32 17/48/30

vt 10.1683 4.618
vn -1.59292e-16 -1 -3.48452e-17
v 0.289778 0.8 -0.0776457
vt 11.71 38.2205
vn 0.904425 -0.351123 -0.24234
vt 8.62668 38.2205
f 1/49/33 19/50/34 18/51/32

vt 6.39208 5.37778
vn -1.32744e-16 -1 -5.97347e-17
v 0.259808 0.8 -0.15
vt 7.93373 38.9802
vn 0.810885 -0.351123 -0.468165
vt 4.85043 38.9802
f 1/52/35 20/53/36 19/54/34

vt 2.18022 5.77107
vn -1.59292e-16 -1 1.46018e-16
v 0.212132 0.8 -0.212132
vt 3.72187 39.3735
vn 0.662085 -0.351123 -0.662085
vt 0.638571 39.3735
f 1/55/37 21/56/38 20/57/36

vt -2.18022 5.77107
vn -5.30975e-17 -1 -1.32744e-17
v 0.15 0.8 -0.259808
vt -0.638571 39.3735
vn 0.468165 -0.351123 -0.810885
vt -3.72187 39.3735
f 1/58/39 22/59/40 21/60/38

vt -6.39208 5.37778
vn -2.25664e-16 -1 9.29206e-17
v 0.0776457 0.8 -0.289778
vt -4.85043 38.9802
vn 0.24234 -0.351123 -0.904425
vt -7.93373 38.9802
f 1/61/41 23/62/42 22/63/40

vt -10.1683 4.618
vn -3.15266e-17 -1 -2.65487e-17
v 4.51195e-17 0.8 -0.3
vt -8.62668 38.2205
vn 2.02751e-16 -0.351123 -0.936329
vt -11.71 38.2205
f 1/64/43 24/65/44 23/66/42

vt -13.2516 3.54352
vn -1.99116e-16 -1 -3.98231e-17
v -0.0776457 0.8 -0.289778
vt -11.71 37.146
vn -0.24234 -0.351123 -0.904425
vt -14.7933 37.146
f 1/67/45 25/68/46 24/69/44

vt -15.4318 2.22755
vn -7.96462e-17 -1 7.96462e-17
vt -13.8902 35.83
vt -16.9735 35.83
f 1/70/47 3/71/3 25/72/46

vt 17.7165 1.58238
vn 0 1 -0
vt 20.1627 3.45937
vt 22.0397 5.90551
vt 23.2196 8.75411
vt 23.622 11.811
vt 23.2196 14.8679
vt 22.0397 17.7165
vt 20.1627 20.1627
vt 17.7165 22.0397
vt 14.8679 23.2196
vt 11.811 23.622
vt 8.75411 23.2196
vt 5.90551 22.0397
vt 3.45937 20.1627
vt 1.58238 17.7165
vt 0.402451 14.8679
vt 0 11.811
vt 0.402451 8.75411
vt 1.58238 5.90551
vt 3.45937 3.45937
vt 5.90551 1.58238
vt 8.75411 0.402451
vt 11.811 0
vt 14.8679 0.402451
f 14/73/48 15/74/48 16/75/48 17/76/48 18/77/48 19/78/48 20/79/48 21/80/48 22/81/48 23/82/48 24/83/48 25/84/48 3/85/48 2/86/48 4/87/48 5/88/48 6/89/48 7/90/48 8/91/48 9/92/48 10/93/48 11/94/48 12/95/48 13/96/48 

